<mxfile host="app.diagrams.net" modified="2024-04-17T22:45:02.669Z" agent="Mozilla/5.0 (Windows NT 10.0; Win64; x64) AppleWebKit/537.36 (KHTML, like Gecko) Chrome/123.0.0.0 Safari/537.36" etag="x9vHllN5CuZPbREbcJE-" version="24.2.5" type="device">
  <diagram id="R2lEEEUBdFMjLlhIrx00" name="Page-1">
    <mxGraphModel dx="784" dy="1504" grid="1" gridSize="10" guides="1" tooltips="1" connect="1" arrows="1" fold="1" page="1" pageScale="1" pageWidth="850" pageHeight="1100" math="0" shadow="0" extFonts="Permanent Marker^https://fonts.googleapis.com/css?family=Permanent+Marker">
      <root>
        <mxCell id="0" />
        <mxCell id="1" parent="0" />
        <mxCell id="RSKgJDMZWpM9bOAdt5ru-1" value="empleado" style="whiteSpace=wrap;html=1;align=center;fillColor=#1ba1e2;fontColor=#ffffff;strokeColor=#006EAF;" vertex="1" parent="1">
          <mxGeometry x="200" y="100" width="100" height="40" as="geometry" />
        </mxCell>
        <mxCell id="RSKgJDMZWpM9bOAdt5ru-2" value="contratado&lt;span style=&quot;color: rgba(0, 0, 0, 0); font-family: monospace; font-size: 0px; text-align: start; text-wrap: nowrap;&quot;&gt;%3CmxGraphModel%3E%3Croot%3E%3CmxCell%20id%3D%220%22%2F%3E%3CmxCell%20id%3D%221%22%20parent%3D%220%22%2F%3E%3CmxCell%20id%3D%222%22%20value%3D%22empleado%22%20style%3D%22whiteSpace%3Dwrap%3Bhtml%3D1%3Balign%3Dcenter%3BfillColor%3D%231ba1e2%3BfontColor%3D%23ffffff%3BstrokeColor%3D%23006EAF%3B%22%20vertex%3D%221%22%20parent%3D%221%22%3E%3CmxGeometry%20x%3D%22400%22%20y%3D%22120%22%20width%3D%22100%22%20height%3D%2240%22%20as%3D%22geometry%22%2F%3E%3C%2FmxCell%3E%3C%2Froot%3E%3C%2FmxGraphModel%3E&lt;/span&gt;" style="whiteSpace=wrap;html=1;align=center;fillColor=#1ba1e2;fontColor=#ffffff;strokeColor=#006EAF;" vertex="1" parent="1">
          <mxGeometry x="290" y="240" width="100" height="40" as="geometry" />
        </mxCell>
        <mxCell id="RSKgJDMZWpM9bOAdt5ru-3" value="efectivo" style="whiteSpace=wrap;html=1;align=center;fillColor=#1ba1e2;fontColor=#ffffff;strokeColor=#006EAF;" vertex="1" parent="1">
          <mxGeometry x="110" y="240" width="100" height="40" as="geometry" />
        </mxCell>
        <mxCell id="RSKgJDMZWpM9bOAdt5ru-5" value="nro_legajo" style="ellipse;whiteSpace=wrap;html=1;align=center;fontStyle=4;fillColor=#cce5ff;strokeColor=#36393d;" vertex="1" parent="1">
          <mxGeometry x="10" y="40" width="100" height="40" as="geometry" />
        </mxCell>
        <mxCell id="RSKgJDMZWpM9bOAdt5ru-6" value="nombre" style="ellipse;whiteSpace=wrap;html=1;align=center;" vertex="1" parent="1">
          <mxGeometry x="10" y="90" width="100" height="40" as="geometry" />
        </mxCell>
        <mxCell id="RSKgJDMZWpM9bOAdt5ru-7" value="apellido" style="ellipse;whiteSpace=wrap;html=1;align=center;" vertex="1" parent="1">
          <mxGeometry x="10" y="140" width="100" height="40" as="geometry" />
        </mxCell>
        <mxCell id="RSKgJDMZWpM9bOAdt5ru-10" value="" style="endArrow=none;html=1;rounded=0;exitX=1;exitY=0.5;exitDx=0;exitDy=0;entryX=0;entryY=0;entryDx=0;entryDy=0;" edge="1" parent="1" source="RSKgJDMZWpM9bOAdt5ru-5" target="RSKgJDMZWpM9bOAdt5ru-1">
          <mxGeometry relative="1" as="geometry">
            <mxPoint x="350" y="440" as="sourcePoint" />
            <mxPoint x="510" y="440" as="targetPoint" />
          </mxGeometry>
        </mxCell>
        <mxCell id="RSKgJDMZWpM9bOAdt5ru-11" value="" style="endArrow=none;html=1;rounded=0;exitX=1;exitY=0.5;exitDx=0;exitDy=0;entryX=0;entryY=0.25;entryDx=0;entryDy=0;" edge="1" parent="1" source="RSKgJDMZWpM9bOAdt5ru-6" target="RSKgJDMZWpM9bOAdt5ru-1">
          <mxGeometry relative="1" as="geometry">
            <mxPoint x="360" y="450" as="sourcePoint" />
            <mxPoint x="520" y="450" as="targetPoint" />
          </mxGeometry>
        </mxCell>
        <mxCell id="RSKgJDMZWpM9bOAdt5ru-12" value="" style="endArrow=none;html=1;rounded=0;entryX=0;entryY=0.75;entryDx=0;entryDy=0;exitX=1;exitY=0;exitDx=0;exitDy=0;" edge="1" parent="1" source="RSKgJDMZWpM9bOAdt5ru-7" target="RSKgJDMZWpM9bOAdt5ru-1">
          <mxGeometry relative="1" as="geometry">
            <mxPoint x="100" y="160" as="sourcePoint" />
            <mxPoint x="530" y="460" as="targetPoint" />
          </mxGeometry>
        </mxCell>
        <mxCell id="RSKgJDMZWpM9bOAdt5ru-13" value="" style="endArrow=none;html=1;rounded=0;exitX=0;exitY=0.5;exitDx=0;exitDy=0;entryX=1;entryY=0.5;entryDx=0;entryDy=0;" edge="1" parent="1" source="RSKgJDMZWpM9bOAdt5ru-22" target="RSKgJDMZWpM9bOAdt5ru-1">
          <mxGeometry relative="1" as="geometry">
            <mxPoint x="380" y="470" as="sourcePoint" />
            <mxPoint x="540" y="470" as="targetPoint" />
          </mxGeometry>
        </mxCell>
        <mxCell id="RSKgJDMZWpM9bOAdt5ru-16" value="descripcion" style="ellipse;whiteSpace=wrap;html=1;align=center;" vertex="1" parent="1">
          <mxGeometry x="570" y="40" width="100" height="40" as="geometry" />
        </mxCell>
        <mxCell id="RSKgJDMZWpM9bOAdt5ru-17" value="departamento" style="whiteSpace=wrap;html=1;align=center;fillColor=#1ba1e2;fontColor=#ffffff;strokeColor=#006EAF;" vertex="1" parent="1">
          <mxGeometry x="510" y="100" width="100" height="40" as="geometry" />
        </mxCell>
        <mxCell id="RSKgJDMZWpM9bOAdt5ru-19" value="" style="endArrow=none;html=1;rounded=0;exitX=0.5;exitY=1;exitDx=0;exitDy=0;entryX=0.25;entryY=0;entryDx=0;entryDy=0;" edge="1" parent="1" source="RSKgJDMZWpM9bOAdt5ru-21" target="RSKgJDMZWpM9bOAdt5ru-17">
          <mxGeometry relative="1" as="geometry">
            <mxPoint x="230" y="360" as="sourcePoint" />
            <mxPoint x="510" y="440" as="targetPoint" />
          </mxGeometry>
        </mxCell>
        <mxCell id="RSKgJDMZWpM9bOAdt5ru-20" value="" style="endArrow=none;html=1;rounded=0;exitX=1;exitY=0;exitDx=0;exitDy=0;entryX=0.5;entryY=1;entryDx=0;entryDy=0;" edge="1" parent="1" source="RSKgJDMZWpM9bOAdt5ru-17" target="RSKgJDMZWpM9bOAdt5ru-16">
          <mxGeometry relative="1" as="geometry">
            <mxPoint x="360" y="450" as="sourcePoint" />
            <mxPoint x="700" y="70" as="targetPoint" />
          </mxGeometry>
        </mxCell>
        <mxCell id="RSKgJDMZWpM9bOAdt5ru-21" value="codigo" style="ellipse;whiteSpace=wrap;html=1;align=center;fontStyle=4;fillColor=#cce5ff;strokeColor=#36393d;" vertex="1" parent="1">
          <mxGeometry x="460" y="40" width="100" height="40" as="geometry" />
        </mxCell>
        <mxCell id="RSKgJDMZWpM9bOAdt5ru-22" value="trabaja" style="shape=rhombus;perimeter=rhombusPerimeter;whiteSpace=wrap;html=1;align=center;fillColor=#008a00;fontColor=#ffffff;strokeColor=#005700;" vertex="1" parent="1">
          <mxGeometry x="350" y="90" width="120" height="60" as="geometry" />
        </mxCell>
        <mxCell id="RSKgJDMZWpM9bOAdt5ru-23" value="" style="endArrow=none;html=1;rounded=0;exitX=1;exitY=0.5;exitDx=0;exitDy=0;entryX=0;entryY=0.5;entryDx=0;entryDy=0;" edge="1" parent="1" source="RSKgJDMZWpM9bOAdt5ru-22" target="RSKgJDMZWpM9bOAdt5ru-17">
          <mxGeometry relative="1" as="geometry">
            <mxPoint x="350" y="440" as="sourcePoint" />
            <mxPoint x="510" y="440" as="targetPoint" />
          </mxGeometry>
        </mxCell>
        <mxCell id="RSKgJDMZWpM9bOAdt5ru-26" style="edgeStyle=orthogonalEdgeStyle;rounded=0;orthogonalLoop=1;jettySize=auto;html=1;exitX=0.5;exitY=1;exitDx=0;exitDy=0;" edge="1" parent="1" source="RSKgJDMZWpM9bOAdt5ru-16" target="RSKgJDMZWpM9bOAdt5ru-16">
          <mxGeometry relative="1" as="geometry" />
        </mxCell>
        <mxCell id="RSKgJDMZWpM9bOAdt5ru-28" value="salario" style="ellipse;whiteSpace=wrap;html=1;align=center;" vertex="1" parent="1">
          <mxGeometry x="10" y="290" width="100" height="40" as="geometry" />
        </mxCell>
        <mxCell id="RSKgJDMZWpM9bOAdt5ru-30" value="" style="endArrow=none;html=1;rounded=0;exitX=0;exitY=1;exitDx=0;exitDy=0;entryX=1;entryY=0;entryDx=0;entryDy=0;" edge="1" parent="1" source="RSKgJDMZWpM9bOAdt5ru-55" target="RSKgJDMZWpM9bOAdt5ru-3">
          <mxGeometry relative="1" as="geometry">
            <mxPoint x="-35" y="240" as="sourcePoint" />
            <mxPoint x="125" y="507.5" as="targetPoint" />
          </mxGeometry>
        </mxCell>
        <mxCell id="RSKgJDMZWpM9bOAdt5ru-31" value="" style="endArrow=none;html=1;rounded=0;entryX=0;entryY=0;entryDx=0;entryDy=0;exitX=1;exitY=1;exitDx=0;exitDy=0;" edge="1" parent="1" source="RSKgJDMZWpM9bOAdt5ru-55" target="RSKgJDMZWpM9bOAdt5ru-2">
          <mxGeometry relative="1" as="geometry">
            <mxPoint x="270" y="459.5" as="sourcePoint" />
            <mxPoint x="440" y="702" as="targetPoint" />
          </mxGeometry>
        </mxCell>
        <mxCell id="RSKgJDMZWpM9bOAdt5ru-32" value="" style="endArrow=none;html=1;rounded=0;exitX=0;exitY=1;exitDx=0;exitDy=0;entryX=1;entryY=0;entryDx=0;entryDy=0;" edge="1" parent="1" source="RSKgJDMZWpM9bOAdt5ru-3" target="RSKgJDMZWpM9bOAdt5ru-28">
          <mxGeometry relative="1" as="geometry">
            <mxPoint x="-35" y="195.5" as="sourcePoint" />
            <mxPoint x="65" y="215.5" as="targetPoint" />
          </mxGeometry>
        </mxCell>
        <mxCell id="RSKgJDMZWpM9bOAdt5ru-33" value="precio_hora_comun" style="ellipse;whiteSpace=wrap;html=1;align=center;" vertex="1" parent="1">
          <mxGeometry x="435" y="180" width="120" height="50" as="geometry" />
        </mxCell>
        <mxCell id="RSKgJDMZWpM9bOAdt5ru-34" value="precio_hora_extra" style="ellipse;whiteSpace=wrap;html=1;align=center;" vertex="1" parent="1">
          <mxGeometry x="440" y="237.5" width="110" height="45" as="geometry" />
        </mxCell>
        <mxCell id="RSKgJDMZWpM9bOAdt5ru-35" value="" style="endArrow=none;html=1;rounded=0;exitX=1;exitY=0;exitDx=0;exitDy=0;entryX=0;entryY=0.5;entryDx=0;entryDy=0;" edge="1" parent="1" source="RSKgJDMZWpM9bOAdt5ru-2" target="RSKgJDMZWpM9bOAdt5ru-33">
          <mxGeometry relative="1" as="geometry">
            <mxPoint x="270" y="692" as="sourcePoint" />
            <mxPoint x="430" y="692" as="targetPoint" />
          </mxGeometry>
        </mxCell>
        <mxCell id="RSKgJDMZWpM9bOAdt5ru-36" value="" style="endArrow=none;html=1;rounded=0;entryX=0;entryY=0.5;entryDx=0;entryDy=0;" edge="1" parent="1" target="RSKgJDMZWpM9bOAdt5ru-34">
          <mxGeometry relative="1" as="geometry">
            <mxPoint x="390" y="260" as="sourcePoint" />
            <mxPoint x="440" y="702" as="targetPoint" />
          </mxGeometry>
        </mxCell>
        <mxCell id="RSKgJDMZWpM9bOAdt5ru-37" value="pertenece" style="shape=rhombus;perimeter=rhombusPerimeter;whiteSpace=wrap;html=1;align=center;fillColor=#008a00;fontColor=#ffffff;strokeColor=#005700;" vertex="1" parent="1">
          <mxGeometry x="280" y="310" width="120" height="60" as="geometry" />
        </mxCell>
        <mxCell id="RSKgJDMZWpM9bOAdt5ru-38" value="" style="endArrow=none;html=1;rounded=0;entryX=0.5;entryY=0;entryDx=0;entryDy=0;" edge="1" parent="1" source="RSKgJDMZWpM9bOAdt5ru-2" target="RSKgJDMZWpM9bOAdt5ru-37">
          <mxGeometry relative="1" as="geometry">
            <mxPoint x="270" y="692" as="sourcePoint" />
            <mxPoint x="430" y="692" as="targetPoint" />
          </mxGeometry>
        </mxCell>
        <mxCell id="RSKgJDMZWpM9bOAdt5ru-39" value="consultora" style="whiteSpace=wrap;html=1;align=center;fillColor=#1ba1e2;fontColor=#ffffff;strokeColor=#006EAF;" vertex="1" parent="1">
          <mxGeometry x="290" y="407.5" width="100" height="40" as="geometry" />
        </mxCell>
        <mxCell id="RSKgJDMZWpM9bOAdt5ru-40" value="nro_cuit" style="ellipse;whiteSpace=wrap;html=1;align=center;fontStyle=4;fillColor=#cce5ff;strokeColor=#36393d;" vertex="1" parent="1">
          <mxGeometry x="425" y="360" width="100" height="40" as="geometry" />
        </mxCell>
        <mxCell id="RSKgJDMZWpM9bOAdt5ru-41" value="razon_social" style="ellipse;whiteSpace=wrap;html=1;align=center;" vertex="1" parent="1">
          <mxGeometry x="422.5" y="407.5" width="105" height="45" as="geometry" />
        </mxCell>
        <mxCell id="RSKgJDMZWpM9bOAdt5ru-42" style="edgeStyle=orthogonalEdgeStyle;rounded=0;orthogonalLoop=1;jettySize=auto;html=1;exitX=0.5;exitY=1;exitDx=0;exitDy=0;" edge="1" parent="1" source="RSKgJDMZWpM9bOAdt5ru-41" target="RSKgJDMZWpM9bOAdt5ru-41">
          <mxGeometry relative="1" as="geometry" />
        </mxCell>
        <mxCell id="RSKgJDMZWpM9bOAdt5ru-43" value="" style="endArrow=none;html=1;rounded=0;entryX=0;entryY=0.5;entryDx=0;entryDy=0;exitX=1;exitY=0;exitDx=0;exitDy=0;" edge="1" parent="1" source="RSKgJDMZWpM9bOAdt5ru-39" target="RSKgJDMZWpM9bOAdt5ru-40">
          <mxGeometry relative="1" as="geometry">
            <mxPoint x="270" y="692" as="sourcePoint" />
            <mxPoint x="430" y="692" as="targetPoint" />
          </mxGeometry>
        </mxCell>
        <mxCell id="RSKgJDMZWpM9bOAdt5ru-44" value="" style="endArrow=none;html=1;rounded=0;exitX=1;exitY=0.5;exitDx=0;exitDy=0;entryX=0;entryY=0.5;entryDx=0;entryDy=0;" edge="1" parent="1" source="RSKgJDMZWpM9bOAdt5ru-39" target="RSKgJDMZWpM9bOAdt5ru-41">
          <mxGeometry relative="1" as="geometry">
            <mxPoint x="280" y="702" as="sourcePoint" />
            <mxPoint x="440" y="702" as="targetPoint" />
          </mxGeometry>
        </mxCell>
        <mxCell id="RSKgJDMZWpM9bOAdt5ru-48" value="" style="endArrow=none;html=1;rounded=0;entryX=0.5;entryY=1;entryDx=0;entryDy=0;exitX=0.5;exitY=0;exitDx=0;exitDy=0;" edge="1" parent="1" source="RSKgJDMZWpM9bOAdt5ru-39" target="RSKgJDMZWpM9bOAdt5ru-37">
          <mxGeometry relative="1" as="geometry">
            <mxPoint x="280" y="702" as="sourcePoint" />
            <mxPoint x="440" y="702" as="targetPoint" />
          </mxGeometry>
        </mxCell>
        <mxCell id="RSKgJDMZWpM9bOAdt5ru-49" value="n" style="text;html=1;align=center;verticalAlign=middle;resizable=0;points=[];autosize=1;strokeColor=none;fillColor=none;" vertex="1" parent="1">
          <mxGeometry x="335" y="280" width="30" height="30" as="geometry" />
        </mxCell>
        <mxCell id="RSKgJDMZWpM9bOAdt5ru-53" value="1" style="text;html=1;align=center;verticalAlign=middle;resizable=0;points=[];autosize=1;strokeColor=none;fillColor=none;" vertex="1" parent="1">
          <mxGeometry x="480" y="88" width="30" height="30" as="geometry" />
        </mxCell>
        <mxCell id="RSKgJDMZWpM9bOAdt5ru-54" value="&lt;b&gt;&lt;font style=&quot;font-size: 16px;&quot;&gt;DER Requerimiento 6 - Empleados de una empresa&lt;/font&gt;&lt;/b&gt;" style="text;html=1;align=center;verticalAlign=middle;resizable=0;points=[];autosize=1;strokeColor=none;fillColor=none;" vertex="1" parent="1">
          <mxGeometry x="170" y="-20" width="410" height="30" as="geometry" />
        </mxCell>
        <mxCell id="RSKgJDMZWpM9bOAdt5ru-55" value="d" style="ellipse;whiteSpace=wrap;html=1;align=center;fillColor=#f5f5f5;gradientColor=#b3b3b3;strokeColor=#666666;" vertex="1" parent="1">
          <mxGeometry x="232.5" y="180" width="35" height="30" as="geometry" />
        </mxCell>
        <mxCell id="RSKgJDMZWpM9bOAdt5ru-56" value="" style="shape=link;html=1;rounded=0;exitX=0.5;exitY=1;exitDx=0;exitDy=0;entryX=0.5;entryY=0;entryDx=0;entryDy=0;" edge="1" parent="1" source="RSKgJDMZWpM9bOAdt5ru-1" target="RSKgJDMZWpM9bOAdt5ru-55">
          <mxGeometry relative="1" as="geometry">
            <mxPoint x="249.76" y="140" as="sourcePoint" />
            <mxPoint x="249.76" y="170" as="targetPoint" />
          </mxGeometry>
        </mxCell>
        <mxCell id="RSKgJDMZWpM9bOAdt5ru-58" value="1" style="text;html=1;align=center;verticalAlign=middle;resizable=0;points=[];autosize=1;strokeColor=none;fillColor=none;" vertex="1" parent="1">
          <mxGeometry x="335" y="380" width="30" height="30" as="geometry" />
        </mxCell>
        <mxCell id="RSKgJDMZWpM9bOAdt5ru-59" value="n" style="text;html=1;align=center;verticalAlign=middle;resizable=0;points=[];autosize=1;strokeColor=none;fillColor=none;" vertex="1" parent="1">
          <mxGeometry x="305" y="88" width="30" height="30" as="geometry" />
        </mxCell>
        <mxCell id="RSKgJDMZWpM9bOAdt5ru-60" value="" style="shape=requiredInterface;html=1;verticalLabelPosition=bottom;sketch=0;rotation=45;" vertex="1" parent="1">
          <mxGeometry x="269.99999999999994" y="210" width="10" height="20" as="geometry" />
        </mxCell>
        <mxCell id="RSKgJDMZWpM9bOAdt5ru-63" value="" style="shape=requiredInterface;html=1;verticalLabelPosition=bottom;sketch=0;rotation=125;" vertex="1" parent="1">
          <mxGeometry x="219.99999999999994" y="210" width="10" height="20" as="geometry" />
        </mxCell>
      </root>
    </mxGraphModel>
  </diagram>
</mxfile>
